<svg width="91" height="30" viewBox="0 0 91 30" fill="none" xmlns="http://www.w3.org/2000/svg">
<g clip-path="url(#clip0_3_11928)">
<path fill-rule="evenodd" clip-rule="evenodd" d="M0.938983 9.18732L18.3892 1.56749C18.5794 1.48036 18.7856 1.43113 18.9957 1.42269C19.2057 1.41424 19.4154 1.44675 19.6123 1.51831C19.8093 1.58987 19.9896 1.69903 20.1426 1.83939C20.2956 1.97974 20.4183 2.14845 20.5034 2.33561L28.2661 19.4726C28.3531 19.657 28.4017 19.8564 28.4091 20.0592C28.4165 20.2621 28.3825 20.4643 28.3092 20.6543C28.2358 20.8443 28.1245 21.0183 27.9817 21.1661C27.8389 21.314 27.6674 21.4328 27.4772 21.5158L10.0112 29.1587C9.82097 29.2458 9.61478 29.295 9.40473 29.3035C9.19469 29.3119 8.98503 29.2794 8.78807 29.2078C8.59111 29.1363 8.41082 29.0271 8.2578 28.8868C8.10478 28.7464 7.9821 28.5777 7.89698 28.3905L0.142205 11.2613C0.0504499 11.0748 -0.00170582 10.8722 -0.011138 10.6657C-0.0205701 10.4591 0.0129157 10.2528 0.0873137 10.0592C0.161712 9.86555 0.27549 9.68851 0.421833 9.53869C0.568176 9.38888 0.744073 9.26937 0.938983 9.18732Z" fill="#A1D1F5"/>
<path d="M18.5705 21.0933C21.3159 21.0933 23.3906 19.0578 23.3906 15.4937C23.3906 11.9296 21.3395 9.86331 18.5705 9.86331C17.9215 9.86688 17.2823 10.0172 16.7032 10.3025C16.1241 10.5878 15.621 11.0001 15.2335 11.5071V6.06107H12.3462V20.8475H15.2335V19.4572C15.623 19.9615 16.1268 20.3714 16.7056 20.6552C17.2843 20.939 17.9225 21.0889 18.5705 21.0933ZM17.6633 18.5969C17.1921 18.5866 16.7293 18.4735 16.3088 18.2662C15.8883 18.0588 15.5209 17.7624 15.2335 17.3986V13.6118C15.5193 13.2452 15.886 12.9458 16.3066 12.7358C16.7272 12.5257 17.1908 12.4103 17.6633 12.3981C19.3357 12.3981 20.4402 13.6348 20.4402 15.4706C20.4402 17.3065 19.3357 18.5969 17.6633 18.5969ZM30.6642 21.0933C32.2955 21.1449 33.8905 20.6181 35.153 19.6109L33.8907 17.775C33.0857 18.445 32.0698 18.8271 31.0113 18.8581C30.2589 18.9176 29.5117 18.6933 28.9244 18.2315C28.3371 17.7697 27.9545 17.1058 27.8557 16.377H35.9419V15.7625C35.9419 12.2599 33.733 9.86331 30.4827 9.86331C29.7298 9.85457 28.9829 9.99458 28.2872 10.2749C27.5914 10.5551 26.9612 10.9699 26.4347 11.494C25.9082 12.0181 25.4964 12.6408 25.224 13.3242C24.9516 14.0077 24.8244 14.7379 24.8501 15.4706C24.8137 16.2217 24.9394 16.9719 25.2192 17.6727C25.4991 18.3735 25.9268 19.0094 26.4747 19.5392C27.0226 20.0691 27.6785 20.4812 28.4002 20.7489C29.1218 21.0166 29.8931 21.1339 30.6642 21.0933ZM33.165 14.4721H27.8084C27.8569 13.8188 28.1616 13.2087 28.6595 12.7682C29.1574 12.3278 29.8102 12.0907 30.4827 12.1062C30.8192 12.0866 31.1563 12.1325 31.4743 12.2414C31.7924 12.3502 32.0848 12.5198 32.3347 12.7401C32.5845 12.9605 32.7866 13.2272 32.9292 13.5246C33.0718 13.822 33.1519 14.1441 33.165 14.4721ZM39.0501 25.1721C40.9197 25.126 42.3634 24.596 43.1681 22.5835L48.288 10.1322H45.2113L42.3713 17.5753L39.5313 10.1322H36.4546L40.8724 20.9858L40.478 21.8922C40.3413 22.1597 40.1211 22.3781 39.8489 22.5161C39.5768 22.6541 39.2667 22.7046 38.9633 22.6603C38.6546 22.6591 38.349 22.5991 38.064 22.4837L37.638 25.0108C38.1029 25.1045 38.5754 25.1585 39.0501 25.1721ZM54.6149 21.0933C55.3827 21.1284 56.1497 21.0069 56.8666 20.7368C57.5835 20.4666 58.2346 20.0537 58.7781 19.5244C59.3217 18.9951 59.7458 18.3612 60.0233 17.6631C60.3008 16.9651 60.4255 16.2183 60.3895 15.4706C60.3895 13.9835 59.7828 12.5572 58.7028 11.5057C57.6228 10.4541 56.158 9.86331 54.6306 9.86331C53.1033 9.86331 51.6385 10.4541 50.5585 11.5057C49.4785 12.5572 48.8717 13.9835 48.8717 15.4706C48.8361 16.2156 48.96 16.9597 49.2356 17.6555C49.5111 18.3514 49.9324 18.9838 50.4725 19.5126C51.0126 20.0414 51.6598 20.455 52.3729 20.7271C53.0861 20.9993 53.8496 21.124 54.6149 21.0933ZM54.6149 18.5969C52.8399 18.5969 51.8459 17.1528 51.8459 15.4706C51.8459 13.7884 52.8399 12.3981 54.6149 12.3981C56.3899 12.3981 57.4154 13.8422 57.4154 15.4706C57.4154 17.0991 56.3977 18.5969 54.6149 18.5969ZM65.3674 20.8475V13.6348C65.6519 13.2541 66.0242 12.9437 66.4545 12.7289C66.8848 12.5141 67.361 12.4008 67.8445 12.3981C69.0594 12.3981 69.8483 12.9128 69.8483 14.3953V20.8475H72.712V13.2815C72.712 11.1998 71.5602 9.86331 69.1777 9.86331C68.4563 9.85422 67.7415 9.99868 67.0833 10.2866C66.4252 10.5745 65.8396 10.9989 65.3674 11.5301V10.1322H62.5037V20.8475H65.3674ZM76.972 8.99532C77.1978 8.99431 77.4212 8.95 77.6295 8.86492C77.8378 8.77984 78.0268 8.65565 78.1857 8.49944C78.3447 8.34323 78.4705 8.15807 78.556 7.95452C78.6414 7.75097 78.6849 7.53302 78.6838 7.31312C78.6838 6.87104 78.5035 6.44708 78.1824 6.13449C77.8614 5.82189 77.426 5.64628 76.972 5.64628C76.5179 5.64628 76.0825 5.82189 75.7615 6.13449C75.4404 6.44708 75.2601 6.87104 75.2601 7.31312C75.2662 7.75334 75.4485 8.17385 75.7682 8.48516C76.088 8.79647 76.5198 8.97399 76.972 8.97996V8.99532ZM78.4156 20.8475V10.1322H75.552V20.8475H78.4156ZM86.3045 21.1087C87.1314 21.1555 87.9573 21.0025 88.7087 20.6635C89.4602 20.3244 90.114 19.8098 90.6119 19.1653L88.7343 17.4601C88.4791 17.8218 88.1358 18.1162 87.7353 18.3173C87.3347 18.5183 86.8892 18.6197 86.4386 18.6123C86.0278 18.6131 85.6213 18.5301 85.2454 18.3687C84.8694 18.2072 84.5324 17.9709 84.2559 17.675C83.9795 17.379 83.7698 17.03 83.6403 16.6503C83.5107 16.2707 83.4643 15.8688 83.504 15.4706C83.4722 15.0762 83.5251 14.6795 83.6594 14.3061C83.7937 13.9326 84.0064 13.5905 84.2839 13.3014C84.5615 13.0124 84.8978 12.7828 85.2715 12.6273C85.6452 12.4718 86.048 12.3937 86.4544 12.3981C86.9067 12.3807 87.3559 12.4776 87.7582 12.6796C88.1606 12.8815 88.5023 13.1815 88.7501 13.5503L90.6276 11.822C90.1261 11.1824 89.4713 10.6722 88.7204 10.3361C87.9695 10 87.1454 9.84821 86.3203 9.89403C85.5572 9.86055 84.7953 9.98158 84.0827 10.2495C83.3701 10.5174 82.7223 10.9263 82.1803 11.4504C81.6384 11.9745 81.2139 12.6024 80.9339 13.2944C80.6539 13.9864 80.5244 14.7274 80.5535 15.4706C80.5176 16.2176 80.6421 16.9637 80.9191 17.6612C81.1961 18.3587 81.6195 18.9923 82.1622 19.5214C82.7049 20.0506 83.355 20.4637 84.071 20.7343C84.787 21.005 85.5531 21.1273 86.3203 21.0933L86.3045 21.1087Z" fill="white"/>
<path d="M18.5705 21.0933C21.3159 21.0933 23.3906 19.0578 23.3906 15.4937C23.3906 11.9296 21.3395 9.86331 18.5705 9.86331C17.9215 9.86688 17.2823 10.0172 16.7032 10.3025C16.1241 10.5878 15.621 11.0001 15.2335 11.5071V6.06107H12.3462V20.8475H15.2335V19.4572C15.623 19.9615 16.1268 20.3714 16.7056 20.6552C17.2843 20.939 17.9225 21.0889 18.5705 21.0933ZM17.6633 18.5969C17.1921 18.5866 16.7293 18.4735 16.3088 18.2662C15.8883 18.0588 15.5209 17.7624 15.2335 17.3986V13.6118C15.5193 13.2452 15.886 12.9458 16.3066 12.7358C16.7272 12.5257 17.1908 12.4103 17.6633 12.3981C19.3357 12.3981 20.4402 13.6348 20.4402 15.4706C20.4402 17.3065 19.3357 18.5969 17.6633 18.5969ZM30.6642 21.0933C32.2955 21.1449 33.8905 20.6181 35.153 19.6109L33.8907 17.775C33.0857 18.445 32.0698 18.8271 31.0113 18.8581C30.2589 18.9176 29.5117 18.6933 28.9244 18.2315C28.3371 17.7697 27.9545 17.1058 27.8557 16.377H35.9419V15.7625C35.9419 12.2599 33.733 9.86331 30.4827 9.86331C29.7298 9.85457 28.9829 9.99458 28.2872 10.2749C27.5914 10.5551 26.9612 10.9699 26.4347 11.494C25.9082 12.0181 25.4964 12.6408 25.224 13.3242C24.9516 14.0077 24.8244 14.7379 24.8501 15.4706C24.8137 16.2217 24.9394 16.9719 25.2192 17.6727C25.4991 18.3735 25.9268 19.0094 26.4747 19.5392C27.0226 20.0691 27.6785 20.4812 28.4002 20.7489C29.1218 21.0166 29.8931 21.1339 30.6642 21.0933ZM33.165 14.4721H27.8084C27.8569 13.8188 28.1616 13.2087 28.6595 12.7682C29.1574 12.3278 29.8102 12.0907 30.4827 12.1062C30.8192 12.0866 31.1563 12.1325 31.4743 12.2414C31.7924 12.3502 32.0848 12.5198 32.3347 12.7401C32.5845 12.9605 32.7866 13.2272 32.9292 13.5246C33.0718 13.822 33.1519 14.1441 33.165 14.4721ZM39.0501 25.1721C40.9197 25.126 42.3634 24.596 43.1681 22.5835L48.288 10.1322H45.2113L42.3713 17.5753L39.5313 10.1322H36.4546L40.8724 20.9858L40.478 21.8922C40.3413 22.1597 40.1211 22.3781 39.8489 22.5161C39.5768 22.6541 39.2667 22.7046 38.9633 22.6603C38.6546 22.6591 38.349 22.5991 38.064 22.4837L37.638 25.0108C38.1029 25.1045 38.5754 25.1585 39.0501 25.1721ZM54.6149 21.0933C55.3827 21.1284 56.1497 21.0069 56.8666 20.7368C57.5835 20.4666 58.2346 20.0537 58.7781 19.5244C59.3217 18.9951 59.7458 18.3612 60.0233 17.6631C60.3008 16.9651 60.4255 16.2183 60.3895 15.4706C60.3895 13.9835 59.7828 12.5572 58.7028 11.5057C57.6228 10.4541 56.158 9.86331 54.6306 9.86331C53.1033 9.86331 51.6385 10.4541 50.5585 11.5057C49.4785 12.5572 48.8717 13.9835 48.8717 15.4706C48.8361 16.2156 48.96 16.9597 49.2356 17.6555C49.5111 18.3514 49.9324 18.9838 50.4725 19.5126C51.0126 20.0414 51.6598 20.455 52.3729 20.7271C53.0861 20.9993 53.8496 21.124 54.6149 21.0933ZM54.6149 18.5969C52.8399 18.5969 51.8459 17.1528 51.8459 15.4706C51.8459 13.7884 52.8399 12.3981 54.6149 12.3981C56.3899 12.3981 57.4154 13.8422 57.4154 15.4706C57.4154 17.0991 56.3977 18.5969 54.6149 18.5969ZM65.3674 20.8475V13.6348C65.6519 13.2541 66.0242 12.9437 66.4545 12.7289C66.8848 12.5141 67.361 12.4008 67.8445 12.3981C69.0594 12.3981 69.8483 12.9128 69.8483 14.3953V20.8475H72.712V13.2815C72.712 11.1998 71.5602 9.86331 69.1777 9.86331C68.4563 9.85422 67.7415 9.99868 67.0833 10.2866C66.4252 10.5745 65.8396 10.9989 65.3674 11.5301V10.1322H62.5037V20.8475H65.3674ZM76.972 8.99532C77.1978 8.99431 77.4212 8.95 77.6295 8.86492C77.8378 8.77984 78.0268 8.65565 78.1857 8.49944C78.3447 8.34323 78.4705 8.15807 78.556 7.95452C78.6414 7.75097 78.6849 7.53302 78.6838 7.31312C78.6838 6.87104 78.5035 6.44708 78.1824 6.13449C77.8614 5.82189 77.426 5.64628 76.972 5.64628C76.5179 5.64628 76.0825 5.82189 75.7615 6.13449C75.4404 6.44708 75.2601 6.87104 75.2601 7.31312C75.2662 7.75334 75.4485 8.17385 75.7682 8.48516C76.088 8.79647 76.5198 8.97399 76.972 8.97996V8.99532ZM78.4156 20.8475V10.1322H75.552V20.8475H78.4156ZM86.3045 21.1087C87.1314 21.1555 87.9573 21.0025 88.7087 20.6635C89.4602 20.3244 90.114 19.8098 90.6119 19.1653L88.7343 17.4601C88.4791 17.8218 88.1358 18.1162 87.7353 18.3173C87.3347 18.5183 86.8892 18.6197 86.4386 18.6123C86.0278 18.6131 85.6213 18.5301 85.2454 18.3687C84.8694 18.2072 84.5324 17.9709 84.2559 17.675C83.9795 17.379 83.7698 17.03 83.6403 16.6503C83.5107 16.2707 83.4643 15.8688 83.504 15.4706C83.4722 15.0762 83.5251 14.6795 83.6594 14.3061C83.7937 13.9326 84.0064 13.5905 84.2839 13.3014C84.5615 13.0124 84.8978 12.7828 85.2715 12.6273C85.6452 12.4718 86.048 12.3937 86.4544 12.3981C86.9067 12.3807 87.3559 12.4776 87.7582 12.6796C88.1606 12.8815 88.5023 13.1815 88.7501 13.5503L90.6276 11.822C90.1261 11.1824 89.4713 10.6722 88.7204 10.3361C87.9695 10 87.1454 9.84821 86.3203 9.89403C85.5572 9.86055 84.7953 9.98158 84.0827 10.2495C83.3701 10.5174 82.7223 10.9263 82.1803 11.4504C81.6384 11.9745 81.2139 12.6024 80.9339 13.2944C80.6539 13.9864 80.5244 14.7274 80.5535 15.4706C80.5176 16.2176 80.6421 16.9637 80.9191 17.6612C81.1961 18.3587 81.6195 18.9923 82.1622 19.5214C82.7049 20.0506 83.355 20.4637 84.071 20.7343C84.787 21.005 85.5531 21.1273 86.3203 21.0933L86.3045 21.1087Z" fill="white"/>
</g>
<defs>
<clipPath id="clip0_3_11928">
<rect width="90.6275" height="27.86" fill="white" transform="translate(0 1.42924)"/>
</clipPath>
</defs>
</svg>
